<svg xmlns="http://www.w3.org/2000/svg" version="1.1" xmlns:xlink="http://www.w3.org/1999/xlink" xmlns:svgjs="http://svgjs.dev/svgjs" width="100%" height="100%" viewBox="0 0 1000 600"><rect width="1000" height="600" x="0" y="0" fill="#ccf381"/><g><circle r="166.66666666666666" cx="361.46316019694007" cy="383.6853614430055" fill="#4831d4" transform="matrix(0.6416953457347783,0,0,0.6416953457347783,0,53.790877891365426)"/><path d="M334.47841433878386 458.68536540187836L315.83622112243233 458.68536540187836L315.83622112243233 308.6853694510925L407.09008862809617 308.6853694510925L407.09008862809617 324.7070408452167L334.47841433878386 324.7070408452167L334.47841433878386 374.6296401167631L402.0480719574815 374.6296401167631L402.0480719574815 390.6181403485806L334.47841433878386 390.6181403485806L334.47841433878386 458.68536540187836Z " fill="#ccf381" transform="matrix(0.6416953457347783,0,0,0.6416953457347783,0,53.790877891365426)"/><path d="M657.3240480147783 455.93307743723614L611.4631551411978 311.2136373993219L631.7213164733516 311.2136373993219L669.2933250103953 440.0273804671248L663.9807582155493 440.0273804671248L702.4808657709696 326.1912353510565L714.674166667574 326.1912353510565L752.6942230065927 439.0992814487481L747.6376835271609 439.0992814487481L790.7142793456113 311.2136373993219L810.7804201912044 311.2136373993219L759.6069605227779 455.93307743723614L740.7249460109757 455.93307743723614L707.3133813494139 357.77860539029166L710.7697501075065 357.77860539029166L676.2060625265805 455.93307743723614L657.3240480147783 455.93307743723614ZM888.6447274915682 458.6853710779395L888.6447274915682 458.6853710779395Q870.6908119981427 458.6853710779395 856.5132994070777 450.39648674140267Q842.3357868160127 442.1076024048657 834.174916137183 425.46582690293843Q825.9820420439265 408.82405140101105 825.9820420439265 383.7973813192665L825.9820420439265 383.7973813192665Q825.9820420439265 358.4506770932541 834.174916137183 341.8089015913268Q842.3357868160127 325.16712608939946 856.5132994070777 316.9422485817161Q870.6908119981427 308.6853676596061 888.6447274915682 308.6853676596061L888.6447274915682 308.6853676596061Q906.6306463994205 308.6853676596061 920.8081589904855 316.9742519961429Q934.9856715815505 325.2951397471066 943.1465422603802 342.0009220778875Q951.3394163536367 358.7067044086684 951.3394163536367 383.7973813192665L951.3394163536367 383.7973813192665Q951.3394163536367 409.04807530199855 943.1465422603802 425.6898508039259Q934.9856715815505 442.3316263058532 920.8081589904855 450.52450039910974Q906.6306463994205 458.6853710779395 888.6447274915682 458.6853710779395ZM888.6447274915682 442.1076024048657L888.6447274915682 442.1076024048657Q909.0629058958559 442.1076024048657 920.872165819339 427.2580181108383Q932.681425742822 412.376430402384 932.681425742822 383.573357418279L932.681425742822 383.573357418279Q932.681425742822 355.3463458938561 920.872165819339 340.0807172122805Q909.0629058958559 324.8150885307048 888.6447274915682 324.8150885307048L888.6447274915682 324.8150885307048Q868.4825764026947 324.8150885307048 856.5773062359314 340.14472404113405Q844.6400326547412 355.4743595515633 844.6400326547412 383.7973813192665L844.6400326547412 383.7973813192665Q844.6400326547412 412.50444406009115 856.5773062359314 427.29002152526505Q868.4825764026947 442.1076024048657 888.6447274915682 442.1076024048657ZM986.2551414932574 455.93307743723614L986.2551414932574 311.2136373993219L1028.6276621943184 311.2136373993219Q1050.5179976622383 311.2136373993219 1066.647718533337 320.14259002439445Q1082.7774394044359 329.071542649467 1091.6743886150816 345.32927717827295Q1100.5393344113004 361.5870117070789 1100.5393344113004 383.573357418279L1100.5393344113004 383.573357418279Q1100.5393344113004 405.36768264291845 1091.6743886150816 421.5934137572976Q1082.7774394044359 437.8511482861036 1066.647718533337 446.87611115445645Q1050.5179976622383 455.93307743723614 1028.6276621943184 455.93307743723614L1028.6276621943184 455.93307743723614L986.2551414932574 455.93307743723614ZM1028.6276621943184 327.11933436943326L1004.2090569866828 327.11933436943326L1004.2090569866828 440.2514043681123L1028.6276621943184 440.2514043681123Q1045.0134103808314 440.2514043681123 1056.8226703043147 432.89061904995214Q1068.6319302277975 425.529833731792 1075.0006096987277 412.6644611322251Q1081.401292584084 399.83109194708493 1081.401292584084 383.573357418279L1081.401292584084 383.573357418279Q1081.401292584084 367.21961264619273 1075.0006096987277 354.48225370433295Q1068.6319302277975 341.7448947624732 1056.8226703043147 334.4481162731666Q1045.0134103808314 327.11933436943326 1028.6276621943184 327.11933436943326L1028.6276621943184 327.11933436943326ZM1180.963914865807 436.7950356100197L1178.6596690270785 436.7950356100197L1221.5122409445416 311.2136373993219L1240.6182793573312 311.2136373993219L1189.0287753013563 455.93307743723614L1170.3387812761148 455.93307743723614L1119.1973250221154 311.2136373993219L1138.3353668493316 311.2136373993219L1180.963914865807 436.7950356100197ZM1262.1885806809833 455.93307743723614L1243.2745627547542 455.93307743723614L1293.0398721884021 311.2136373993219L1314.9302076563217 311.2136373993219L1363.5753975850325 455.93307743723614L1344.661379658804 455.93307743723614L1332.4680787621992 418.8411201165942L1274.8619327939896 418.8411201165942L1262.1885806809833 455.93307743723614ZM1303.6650057780944 333.1039728672417L1279.4704244714462 404.7916211832364L1327.8595870847425 404.7916211832364L1303.6650057780944 333.1039728672417Z " fill="#4831d4" transform="matrix(0.6416953457347783,0,0,0.6416953457347783,0,53.790877891365426)"/></g></svg>